<svg width="41" height="41" viewBox="0 0 41 41" fill="none" xmlns="http://www.w3.org/2000/svg">
<path d="M29.9242 29.7033L29.9242 29.7032C31.1512 27.8672 31.9135 25.769 32.1567 23.589C32.1637 23.5267 32.147 23.4737 32.0964 23.4213C32.0399 23.3629 31.945 23.3142 31.8249 23.3142H20.1582C18.5474 23.3142 17.2415 22.0084 17.2415 20.3976V8.7309C17.2415 8.61079 17.1929 8.51586 17.1344 8.45938C17.082 8.40872 17.029 8.39208 16.9668 8.39901L29.9242 29.7033ZM29.9242 29.7033C28.4134 31.9645 26.266 33.7268 23.7535 34.7676M29.9242 29.7033L23.7535 34.7676M23.7535 34.7676C21.2409 35.8083 18.4763 36.0805 15.8091 35.5501L23.7535 34.7676ZM5.7882 16.8023C6.8289 14.2899 8.59129 12.1424 10.8525 10.6315L15.809 35.5501C13.1418 35.0195 10.6918 33.7099 8.76884 31.787C6.84587 29.864 5.5363 27.4139 5.00575 24.7467C4.47521 22.0795 4.7475 19.3149 5.7882 16.8023Z" stroke="white" stroke-width="2.5"/>
<path d="M36.3311 18.0257L36.3311 18.0256C36.181 16.529 35.8124 15.0596 35.2347 13.665L36.3311 18.0257ZM36.3311 18.0257C36.3379 18.0931 36.3186 18.1512 36.2654 18.2061C36.207 18.2663 36.1113 18.3146 35.9915 18.3146H22.6582C22.4281 18.3146 22.2415 18.1281 22.2415 17.898V4.56463C22.2415 4.44488 22.2899 4.34917 22.3501 4.29076C22.405 4.23752 22.4632 4.21822 22.5306 4.22498L22.5306 4.22498C24.0273 4.37514 25.4966 4.74379 26.8912 5.32147L26.8912 5.32148M36.3311 18.0257L26.8912 5.32148M26.8912 5.32148C28.7617 6.09624 30.4612 7.23184 31.8928 8.6634C33.3244 10.0949 34.4598 11.7944 35.2347 13.6649L26.8912 5.32148Z" stroke="white" stroke-width="2.5"/>
</svg>
