<svg width="46" height="46" viewBox="0 0 46 46" fill="none" xmlns="http://www.w3.org/2000/svg">
<path d="M19.1414 9.70046L19.0028 8.45817L19.1414 9.70046ZM19.1414 9.70046C16.6641 9.97687 14.2798 10.8432 12.1932 12.2374M19.1414 9.70046C19.2607 9.68715 19.3657 9.72422 19.4559 9.81128C19.552 9.90417 19.624 10.0515 19.624 10.2291V23.3541C19.624 25.08 21.0231 26.4791 22.749 26.4791H35.874C36.0517 26.4791 36.199 26.5511 36.2918 26.6473C36.3789 26.7374 36.416 26.8424 36.4027 26.9619C36.1263 29.4391 35.2599 31.8234 33.8657 33.9098L33.8657 33.9099C32.1488 36.4795 29.7086 38.4821 26.8535 39.6647C23.9984 40.8473 20.8567 41.1567 17.8258 40.554C14.7948 39.951 12.0107 38.4628 9.8255 36.2778C7.6403 34.0925 6.15215 31.3083 5.54925 28.2774C4.94637 25.2465 5.2558 22.1048 6.43841 19.2497M12.1932 12.2374C9.62372 13.9543 7.62102 16.3946 6.43841 19.2497M12.1932 12.2374L11.4988 11.1981L12.1932 12.2374ZM6.43841 19.2497L5.28355 18.7713M6.43841 19.2497L5.28355 18.7713M5.28355 18.7713C4.00634 21.8549 3.67216 25.2479 4.32327 28.5212L5.28355 18.7713Z" stroke="white" stroke-width="2.5"/>
<path d="M41.099 20.6696L41.099 20.6697C41.1116 20.7943 41.0716 20.9044 40.9818 20.997C40.8869 21.0949 40.7388 21.1666 40.5615 21.1666H25.5615C25.2163 21.1666 24.9365 20.8868 24.9365 20.5416V5.54158C24.9365 5.3643 25.0082 5.21624 25.1061 5.12129C25.1987 5.03152 25.3089 4.9915 25.4335 5.00401L25.4335 5.00401C27.1325 5.17446 28.8004 5.59292 30.3834 6.24867L30.3834 6.24868C32.5067 7.12814 34.4359 8.41719 36.061 10.0422C37.686 11.6672 38.9749 13.5964 39.8544 15.7197C40.5101 17.3028 40.9286 18.9707 41.099 20.6696Z" stroke="white" stroke-width="2.5"/>
</svg>
