<svg width="41" height="41" viewBox="0 0 41 41" fill="none" xmlns="http://www.w3.org/2000/svg">
<path fill-rule="evenodd" clip-rule="evenodd" d="M11.3777 11.2578C11.3777 6.28725 15.4071 2.25781 20.3777 2.25781C25.3482 2.25781 29.3777 6.28725 29.3777 11.2578V14.7686C29.8949 14.7782 30.3622 14.7965 30.7839 14.8309C31.7104 14.9066 32.5471 15.0681 33.3286 15.4663C34.5517 16.0894 35.5461 17.0838 36.1692 18.3068C36.5674 19.0883 36.7289 19.9252 36.8046 20.8517C36.8777 21.7468 36.8777 22.8482 36.8777 24.195V24.2578V28.2578V28.3207C36.8777 29.6673 36.8777 30.7688 36.8046 31.664C36.7289 32.5905 36.5674 33.4272 36.1692 34.2087C35.5461 35.4318 34.5517 36.4262 33.3286 37.0493C32.5471 37.4475 31.7104 37.609 30.7839 37.6847C29.8887 37.7578 28.7872 37.7578 27.4406 37.7578H27.3777H13.3777H13.3148C11.9681 37.7578 10.8667 37.7578 9.97154 37.6847C9.04502 37.609 8.20822 37.4475 7.42674 37.0493C6.20369 36.4262 5.20932 35.4318 4.58614 34.2087C4.18795 33.4272 4.02649 32.5905 3.95079 31.664C3.87765 30.7688 3.87767 29.6673 3.87769 28.3207V28.2578V24.2578V24.195C3.87767 22.8482 3.87765 21.7468 3.95079 20.8517C4.02649 19.9252 4.18795 19.0883 4.58614 18.3068C5.20932 17.0838 6.20369 16.0894 7.42674 15.4663C8.20822 15.0681 9.04502 14.9066 9.97154 14.8309C10.3931 14.7965 10.8605 14.7782 11.3777 14.7686V11.2578ZM26.3777 11.2578V14.7578H14.3777V11.2578C14.3777 7.9441 17.0639 5.25781 20.3777 5.25781C23.6914 5.25781 26.3777 7.9441 26.3777 11.2578ZM10.2158 17.821C9.47484 17.8815 9.07679 17.9925 8.78872 18.1393C8.13015 18.4748 7.59472 19.0103 7.25915 19.6688C7.11237 19.9568 7.00135 20.355 6.94082 21.096C6.87885 21.8545 6.87769 22.8328 6.87769 24.2578V28.2578C6.87769 29.6827 6.87885 30.6612 6.94082 31.4197C7.00135 32.1607 7.11237 32.5587 7.25915 32.8468C7.59472 33.5053 8.13015 34.0408 8.78872 34.3763C9.07679 34.5232 9.47484 34.6342 10.2158 34.6947C10.9744 34.7567 11.9528 34.7578 13.3777 34.7578H27.3777C28.8026 34.7578 29.7811 34.7567 30.5396 34.6947C31.2806 34.6342 31.6786 34.5232 31.9667 34.3763C32.6252 34.0408 33.1607 33.5053 33.4962 32.8468C33.6431 32.5587 33.754 32.1607 33.8145 31.4197C33.8765 30.6612 33.8777 29.6827 33.8777 28.2578V24.2578C33.8777 22.8328 33.8765 21.8545 33.8145 21.096C33.754 20.355 33.6431 19.9568 33.4962 19.6688C33.1607 19.0103 32.6252 18.4748 31.9667 18.1393C31.6786 17.9925 31.2806 17.8815 30.5396 17.821C29.7811 17.759 28.8026 17.7578 27.3777 17.7578H13.3777C11.9528 17.7578 10.9744 17.759 10.2158 17.821ZM22.0444 27.4785C23.0407 26.9022 23.7111 25.825 23.7111 24.5912C23.7111 22.7502 22.2186 21.2578 20.3777 21.2578C18.5367 21.2578 17.0443 22.7502 17.0443 24.5912C17.0443 25.825 17.7147 26.9022 18.7111 27.4785V30.4245C18.7111 31.345 19.4572 32.0912 20.3777 32.0912C21.2982 32.0912 22.0444 31.345 22.0444 30.4245V27.4785Z" fill="#010101"/>
</svg>
