<svg width="43" height="43" viewBox="0 0 43 43" fill="none" xmlns="http://www.w3.org/2000/svg">
<path d="M24.75 18.3682L24.225 30.6182M18.275 30.6182L17.75 18.3682M10.75 11.3682L12.3755 35.7512C12.4456 36.8018 13.3182 37.6182 14.3711 37.6182H28.1289C29.1818 37.6182 30.0544 36.8018 30.1245 35.7512L31.75 11.3682M10.75 11.3682H16M10.75 11.3682H7.25M31.75 11.3682H35.25M31.75 11.3682H26.5M26.5 11.3682V8.11816C26.5 7.01359 25.6046 6.11816 24.5 6.11816H18C16.8954 6.11816 16 7.01359 16 8.11816V11.3682M26.5 11.3682H16" stroke="#ED3F3F" stroke-width="1.8" stroke-linecap="round" stroke-linejoin="round"/>
</svg>
