<svg width="33" height="33" viewBox="0 0 33 33" fill="none" xmlns="http://www.w3.org/2000/svg">
<path fill-rule="evenodd" clip-rule="evenodd" d="M6.16602 22.0721V18.4863C6.16602 18.2211 6.27138 17.9668 6.45892 17.7792L20.4588 3.77922C20.8494 3.3887 21.4826 3.3887 21.8732 3.77922L25.4588 7.36502C25.8494 7.75554 25.8494 8.3887 25.4588 8.77922L11.4589 22.7793C11.2714 22.9667 11.017 23.0721 10.7518 23.0721H7.16602C6.61374 23.0721 6.16602 22.6243 6.16602 22.0721ZM6.16602 26.5721C5.3376 26.5721 4.66602 27.2437 4.66602 28.0721C4.66602 28.9005 5.3376 29.5721 6.16602 29.5721H26.166C26.9944 29.5721 27.666 28.9005 27.666 28.0721C27.666 27.2437 26.9944 26.5721 26.166 26.5721H6.16602Z" fill="black"/>
</svg>
