<svg width="41" height="41" viewBox="0 0 41 41" fill="none" xmlns="http://www.w3.org/2000/svg">
<path d="M34.0027 7.91992H7.06938C5.94928 7.91992 5.38923 7.91992 4.9614 8.13791C4.58508 8.32966 4.27912 8.63562 4.08737 9.01194C3.86938 9.43976 3.86938 9.99982 3.86938 11.1199V11.1833C3.86938 11.8178 3.86938 12.1351 3.95773 12.4224C4.03592 12.6767 4.16408 12.9128 4.33468 13.117C4.52741 13.3476 4.79341 13.5205 5.32542 13.8663L18.7921 22.6197C19.4233 23.03 19.739 23.2351 20.079 23.315C20.3796 23.3855 20.6925 23.3855 20.9931 23.315C21.3331 23.2351 21.6488 23.03 22.28 22.6197L22.28 22.6197L35.7467 13.8663C36.2787 13.5205 36.5447 13.3476 36.7374 13.117C36.908 12.9128 37.0362 12.6767 37.1144 12.4224C37.2027 12.1351 37.2027 11.8178 37.2027 11.1833V11.1199C37.2027 9.99982 37.2027 9.43976 36.9847 9.01194C36.793 8.63562 36.487 8.32966 36.1107 8.13791C35.6829 7.91992 35.1228 7.91992 34.0027 7.91992Z" stroke="black" stroke-width="1.8"/>
<path d="M36.3695 13.7529V29.7196C36.3695 30.8397 36.3695 31.3998 36.1516 31.8276C35.9598 32.2039 35.6539 32.5099 35.2775 32.7016C34.8497 32.9196 34.2897 32.9196 33.1695 32.9196H7.90288C6.78278 32.9196 6.22272 32.9196 5.7949 32.7016C5.41858 32.5099 5.11261 32.2039 4.92087 31.8276C4.70288 31.3998 4.70288 30.8397 4.70288 29.7196V13.7529" stroke="black" stroke-width="1.8" stroke-linecap="round" stroke-linejoin="round"/>
</svg>
