<svg width="25" height="25" viewBox="0 0 25 25" fill="none" xmlns="http://www.w3.org/2000/svg">
<path d="M21.0586 8.83398H4.05859H21.0586ZM6.55859 21.834H18.5586C20.2155 21.834 21.5586 20.4909 21.5586 18.834V8.83398C21.5586 7.17713 20.2155 5.83398 18.5586 5.83398H6.55859C4.90174 5.83398 3.55859 7.17713 3.55859 8.83398V18.834C3.55859 20.4909 4.90174 21.834 6.55859 21.834Z" stroke="white" stroke-linecap="round"/>
<path d="M8.05859 5.83398V3.58398" stroke="white" stroke-width="1.8" stroke-linecap="round" stroke-linejoin="round"/>
<path d="M17.0586 5.83398V3.58398" stroke="white" stroke-width="1.8" stroke-linecap="round" stroke-linejoin="round"/>
<path d="M17.8086 12.3801H16.3086M8.80859 18.3801H7.30859H8.80859ZM8.80859 15.3801H7.30859H8.80859ZM8.80859 12.3801H7.30859H8.80859ZM13.3086 18.3801H11.8086H13.3086ZM13.3086 15.3801H11.8086H13.3086ZM13.3086 12.3801H11.8086H13.3086ZM17.8086 18.3801H16.3086H17.8086ZM17.8086 15.3801H16.3086H17.8086Z" stroke="white" stroke-width="1.8" stroke-linecap="round"/>
</svg>
