<svg width="41" height="41" viewBox="0 0 41 41" fill="none" xmlns="http://www.w3.org/2000/svg">
<path fill-rule="evenodd" clip-rule="evenodd" d="M12.6927 1.05469C13.7283 1.05469 14.5677 1.89415 14.5677 2.92969V5.42969H25.8177V2.92969C25.8177 1.89415 26.6572 1.05469 27.6927 1.05469C28.7282 1.05469 29.5677 1.89415 29.5677 2.92969V5.42969H30.1927C34.335 5.42969 37.6927 8.78756 37.6927 12.9297V17.9297V30.4298C37.6927 34.5718 34.335 37.9298 30.1927 37.9298H10.1927C6.05062 37.9298 2.69275 34.5718 2.69275 30.4298V17.9297V12.9297C2.69275 8.78756 6.05062 5.42969 10.1927 5.42969H10.8177V2.92969C10.8177 1.89415 11.6572 1.05469 12.6927 1.05469ZM33.9427 17.9297H6.44275V30.4298C6.44275 32.5008 8.12167 34.1798 10.1927 34.1798H30.1927C32.2637 34.1798 33.9427 32.5008 33.9427 30.4298V17.9297ZM25.1927 25.4297C23.812 25.4297 22.6927 26.549 22.6927 27.9298C22.6927 29.3105 23.812 30.4298 25.1927 30.4298H27.6927C29.0735 30.4298 30.1927 29.3105 30.1927 27.9298C30.1927 26.549 29.0735 25.4297 27.6927 25.4297H25.1927Z" fill="#0D0D0E"/>
</svg>
