<svg width="31" height="31" viewBox="0 0 31 31" fill="none" xmlns="http://www.w3.org/2000/svg">
<path d="M3.69357 3.64769L3.69358 3.64768C3.88532 3.27135 4.19127 2.9654 4.5676 2.77366L4.56761 2.77365C4.75276 2.67931 4.98835 2.6196 5.37431 2.58806C5.76611 2.55605 6.26727 2.55566 6.97559 2.55566H14.0297C14.7969 3.2689 16.7413 5.11531 18.5772 6.89306C19.5588 7.84351 20.5068 8.77183 21.2256 9.49499C21.5853 9.85695 21.885 10.1648 22.1018 10.3972C22.2106 10.5137 22.2952 10.6077 22.355 10.6782C22.407 10.7395 22.4241 10.7645 22.4247 10.7641C22.4247 10.7641 22.4247 10.7641 22.4247 10.7641L22.4366 10.7874L22.4601 10.8196L22.4966 10.8696L22.4756 25.5549V25.5557C22.4756 26.264 22.4752 26.7652 22.4432 27.157C22.4116 27.5429 22.3519 27.7785 22.2576 27.9636L22.2576 27.9637C22.0659 28.34 21.7599 28.646 21.3836 28.8376L21.3836 28.8377C21.1984 28.932 20.9629 28.9917 20.5769 29.0233C20.1851 29.0553 19.6839 29.0557 18.9756 29.0557H6.97559C6.26727 29.0557 5.76611 29.0553 5.37431 29.0233C4.98835 28.9917 4.75277 28.932 4.56762 28.8377L4.56756 28.8376C4.19129 28.646 3.88532 28.34 3.69357 27.9637L3.24852 28.1904L3.69357 27.9637C3.59923 27.7785 3.53952 27.5429 3.50799 27.157C3.47597 26.7652 3.47559 26.264 3.47559 25.5557V6.05566C3.47559 5.34735 3.47597 4.84618 3.50799 4.45439C3.53952 4.06843 3.59923 3.83284 3.69357 3.64769Z" stroke="white"/>
</svg>
