<svg width="42" height="42" viewBox="0 0 42 42" fill="none" xmlns="http://www.w3.org/2000/svg">
<path fill-rule="evenodd" clip-rule="evenodd" d="M7.38148 3.66104C7 4.40972 7 5.38982 7 7.35V34.65C7 36.6102 7 37.5904 7.38148 38.339C7.71703 38.9975 8.25246 39.533 8.91104 39.8685C9.65972 40.25 10.6398 40.25 12.6 40.25H29.4C31.3602 40.25 32.3404 40.25 33.089 39.8685C33.7475 39.533 34.283 38.9975 34.6185 38.339C35 37.5904 35 36.6102 35 34.65V14H28.35C26.3898 14 25.4097 14 24.661 13.6185C24.0025 13.283 23.467 12.7475 23.1315 12.089C22.75 11.3403 22.75 10.3602 22.75 8.4V1.75H12.6C10.6398 1.75 9.65972 1.75 8.91104 2.13148C8.25246 2.46703 7.71703 3.00246 7.38148 3.66104ZM14 19.425C13.1301 19.425 12.425 20.1301 12.425 21C12.425 21.8699 13.1301 22.575 14 22.575H28C28.8699 22.575 29.575 21.8699 29.575 21C29.575 20.1301 28.8699 19.425 28 19.425H14ZM12.425 27.125C12.425 26.2551 13.1301 25.55 14 25.55H28C28.8699 25.55 29.575 26.2551 29.575 27.125C29.575 27.9949 28.8699 28.7 28 28.7H14C13.1301 28.7 12.425 27.9949 12.425 27.125ZM14 31.675C13.1301 31.675 12.425 32.3801 12.425 33.25C12.425 34.1199 13.1301 34.825 14 34.825H21C21.8699 34.825 22.575 34.1199 22.575 33.25C22.575 32.3801 21.8699 31.675 21 31.675H14Z" fill="#0759A0"/>
<path opacity="0.5" d="M22.75 8.4V1.75L35 14H28.35C26.3898 14 25.4096 14 24.661 13.6185C24.0025 13.283 23.467 12.7475 23.1315 12.089C22.75 11.3403 22.75 10.3602 22.75 8.4Z" fill="#0759A0"/>
</svg>
