<svg width="34" height="34" viewBox="0 0 34 34" fill="none" xmlns="http://www.w3.org/2000/svg">
<g clip-path="url(#clip0)">
<path d="M17.7439 15.143H32.534C32.6972 16.0542 32.7788 16.9247 32.7788 17.7542C32.7788 20.7054 32.16 23.3405 30.9225 25.6592C29.6848 27.978 27.9203 29.7902 25.6285 31.0959C23.3369 32.4016 20.7088 33.0542 17.7439 33.0542C15.6087 33.0542 13.5755 32.643 11.6443 31.8202C9.7131 30.9973 8.0471 29.8855 6.64628 28.4847C5.24548 27.0839 4.13368 25.4179 3.31087 23.4867C2.48807 21.5554 2.07666 19.5222 2.07666 17.387C2.07666 15.2518 2.48807 13.2186 3.31087 11.2874C4.13368 9.35618 5.24548 7.69016 6.64628 6.28936C8.0471 4.88855 9.7131 3.77674 11.6443 2.95393C13.5755 2.13113 15.6087 1.71973 17.7439 1.71973C21.824 1.71973 25.326 3.08654 28.25 5.82016L23.9863 9.92058C22.3136 8.30217 20.2327 7.49296 17.7439 7.49296C15.9895 7.49296 14.3677 7.93497 12.8785 8.81897C11.3893 9.70298 10.2095 10.9032 9.3391 12.4196C8.4687 13.936 8.0335 15.5918 8.0335 17.387C8.0335 19.1822 8.4687 20.8381 9.3391 22.3544C10.2095 23.8708 11.3893 25.0711 12.8785 25.955C14.3677 26.8391 15.9895 27.281 17.7439 27.281C18.9272 27.281 20.0151 27.1179 21.0079 26.7914C22.0007 26.4651 22.8168 26.0571 23.456 25.5674C24.0952 25.0778 24.6528 24.5202 25.1288 23.8946C25.6049 23.2691 25.955 22.6775 26.1794 22.1199C26.4039 21.5622 26.5568 21.0319 26.6384 20.5286H17.7439V15.143Z" fill="white"/>
</g>
<defs>
<clipPath id="clip0">
<rect width="32.9487" height="32.9487" fill="white" transform="translate(0.953613 0.911133)"/>
</clipPath>
</defs>
</svg>
