<svg width="41" height="41" viewBox="0 0 41 41" fill="none" xmlns="http://www.w3.org/2000/svg">
<path d="M20.0798 22.1738C24.222 22.1738 27.5798 18.816 27.5798 14.6738C27.5798 10.5317 24.222 7.17383 20.0798 7.17383C15.9377 7.17383 12.5798 10.5317 12.5798 14.6738C12.5798 18.816 15.9377 22.1738 20.0798 22.1738Z" stroke="#F8F9FF" stroke-width="1.8"/>
<path d="M30.1375 22.1738C34.2796 22.1738 37.6375 18.816 37.6375 14.6738C37.6375 10.5317 34.2796 7.17383 30.1375 7.17383" stroke="#F8F9FF" stroke-width="1.8" stroke-linecap="round" stroke-linejoin="round"/>
<path d="M10.0222 22.1738C5.88005 22.1738 2.52222 18.816 2.52222 14.6738C2.52222 10.5317 5.88005 7.17383 10.0222 7.17383" stroke="#F8F9FF" stroke-width="1.8" stroke-linecap="round" stroke-linejoin="round"/>
<path d="M20.8561 26.0732C14.1895 26.0732 9.18945 29.4066 9.18945 33.5732C9.18945 36.0732 14.1895 38.5732 20.8561 38.5732C27.5228 38.5732 32.5228 36.0732 32.5228 33.5732C32.5228 29.4066 27.5228 26.0732 20.8561 26.0732Z" stroke="#F8F9FF" stroke-width="1.8" stroke-linecap="round" stroke-linejoin="round"/>
<path d="M31.6897 27.1943C36.023 28.3595 39.1897 30.977 39.1897 34.047C39.1897 35.889 36.023 37.7308 31.6897 38.573" stroke="#F8F9FF" stroke-width="1.8" stroke-linecap="round" stroke-linejoin="round"/>
<path d="M10.0227 27.1943C5.68937 28.3595 2.52271 30.977 2.52271 34.047C2.52271 35.889 5.68937 37.7308 10.0227 38.573" stroke="#F8F9FF" stroke-width="1.8" stroke-linecap="round" stroke-linejoin="round"/>
</svg>
