<svg width="41" height="41" viewBox="0 0 41 41" fill="none" xmlns="http://www.w3.org/2000/svg">
<path d="M14.291 4.83105H7.62435C5.7834 4.83105 4.29102 6.32344 4.29102 8.16439V14.8311C4.29102 16.672 5.7834 18.1644 7.62435 18.1644H14.291C16.132 18.1644 17.6243 16.672 17.6243 14.8311V8.16439C17.6243 6.32344 16.132 4.83105 14.291 4.83105Z" stroke="white" stroke-width="2.5"/>
<path d="M32.6243 4.83105H25.9576C24.1167 4.83105 22.6243 6.32344 22.6243 8.16439V14.8311C22.6243 16.672 24.1167 18.1644 25.9576 18.1644H32.6243C34.4652 18.1644 35.9576 16.672 35.9576 14.8311V8.16439C35.9576 6.32344 34.4652 4.83105 32.6243 4.83105Z" stroke="white" stroke-width="2.5"/>
<path d="M14.291 23.1641H7.62435C5.7834 23.1641 4.29102 24.6564 4.29102 26.4974V33.1641C4.29102 35.005 5.7834 36.4974 7.62435 36.4974H14.291C16.132 36.4974 17.6243 35.005 17.6243 33.1641V26.4974C17.6243 24.6564 16.132 23.1641 14.291 23.1641Z" stroke="white" stroke-width="2.5"/>
<path d="M32.6243 23.1641H25.9576C24.1167 23.1641 22.6243 24.6564 22.6243 26.4974V33.1641C22.6243 35.005 24.1167 36.4974 25.9576 36.4974H32.6243C34.4652 36.4974 35.9576 35.005 35.9576 33.1641V26.4974C35.9576 24.6564 34.4652 23.1641 32.6243 23.1641Z" stroke="white" stroke-width="2.5"/>
</svg>
