<svg width="45" height="46" viewBox="0 0 45 46" fill="none" xmlns="http://www.w3.org/2000/svg">
<path d="M14.8077 23H42.5M42.5 23L33.2692 33M42.5 23L33.2692 13M24.0385 13V11C24.0385 8.19973 24.0385 6.7996 23.5354 5.73003C23.0929 4.78923 22.3869 4.02433 21.5184 3.54497C20.5311 3 19.2387 3 16.6538 3H9.88462C7.29975 3 6.00732 3 5.02003 3.54497C4.1516 4.02433 3.44554 4.78923 3.00305 5.73003C2.5 6.7996 2.5 8.19973 2.5 11V35C2.5 37.8003 2.5 39.2003 3.00305 40.27C3.44554 41.2107 4.1516 41.9757 5.02003 42.455C6.00732 43 7.29975 43 9.88462 43H16.6538C19.2387 43 20.5311 43 21.5184 42.455C22.3869 41.9757 23.0929 41.2107 23.5354 40.27C24.0385 39.2003 24.0385 37.8003 24.0385 35V33V13Z" stroke="white" stroke-width="3" stroke-linecap="round" stroke-linejoin="round"/>
</svg>
