<svg width="52" height="52" viewBox="0 0 52 52" fill="none" xmlns="http://www.w3.org/2000/svg">
<g filter="url(#filter0_d)">
<path d="M18.3516 21.8476H46.0439M46.0439 21.8476L36.8132 31.8475M46.0439 21.8476L36.8132 11.8476M27.5824 11.8476V9.84762C27.5824 7.04737 27.5824 5.64724 27.0794 4.57768C26.6369 3.63688 25.9308 2.87199 25.0624 2.39262C24.0751 1.84766 22.7827 1.84766 20.1978 1.84766H13.4286C10.8437 1.84766 9.55127 1.84766 8.56398 2.39262C7.69555 2.87199 6.98948 3.63688 6.54699 4.57768C6.04395 5.64724 6.04395 7.04737 6.04395 9.84762V33.8475C6.04395 36.6478 6.04395 38.0478 6.54699 39.1175C6.98948 40.0581 7.69555 40.8231 8.56398 41.3025C9.55127 41.8475 10.8437 41.8475 13.4286 41.8475H20.1978C22.7827 41.8475 24.0751 41.8475 25.0624 41.3025C25.9308 40.8231 26.6369 40.0581 27.0794 39.1175C27.5824 38.0478 27.5824 36.6478 27.5824 33.8475V31.8475V11.8476Z" stroke="white" stroke-width="3" stroke-linecap="round" stroke-linejoin="round"/>
</g>
<defs>
<filter id="filter0_d" x="0.543945" y="0.347656" width="51" height="50.9998" filterUnits="userSpaceOnUse" color-interpolation-filters="sRGB">
<feFlood flood-opacity="0" result="BackgroundImageFix"/>
<feColorMatrix in="SourceAlpha" type="matrix" values="0 0 0 0 0 0 0 0 0 0 0 0 0 0 0 0 0 0 127 0"/>
<feOffset dy="4"/>
<feGaussianBlur stdDeviation="2"/>
<feColorMatrix type="matrix" values="0 0 0 0 0 0 0 0 0 0 0 0 0 0 0 0 0 0 0.25 0"/>
<feBlend mode="normal" in2="BackgroundImageFix" result="effect1_dropShadow"/>
<feBlend mode="normal" in="SourceGraphic" in2="effect1_dropShadow" result="shape"/>
</filter>
</defs>
</svg>
