<?xml version="1.0" encoding="utf-8"?>
<!-- Generator: Adobe Illustrator 16.0.0, SVG Export Plug-In . SVG Version: 6.00 Build 0)  -->
<!DOCTYPE svg PUBLIC "-//W3C//DTD SVG 1.1//EN" "http://www.w3.org/Graphics/SVG/1.1/DTD/svg11.dtd">
<svg version="1.1" id="Layer_1" xmlns="http://www.w3.org/2000/svg" xmlns:xlink="http://www.w3.org/1999/xlink" x="0px" y="0px"
	 width="336.975px" height="173.95px" viewBox="0 0 336.975 173.95" enable-background="new 0 0 336.975 173.95"
	 xml:space="preserve">
<g>
	<path fill-rule="evenodd" clip-rule="evenodd" fill="#135B9E" d="M320.981,102.234c-3.74,0-6.922-2.713-6.922-6.641
		c0-3.836,3.182-6.641,6.922-6.641c3.648,0,6.828,2.805,6.828,6.641C327.809,99.521,324.629,102.234,320.981,102.234z
		 M295.819,124.588c0-4.396-2.246-7.389-6.828-7.389c-3.555,0-6.641,2.15-7.576,5.799v26.469h-11.598V88.672h11.598v22.822
		c2.244-2.619,6.359-4.771,11.225-4.771c9.445,0,14.777,6.174,14.777,15.434v27.311h-11.598V124.588z M250.079,145.633
		c-2.338,2.619-6.359,4.77-11.225,4.77c-9.352,0-14.684-6.174-14.684-15.434v-27.311h11.598v24.973c0,4.396,2.152,7.389,6.734,7.389
		c3.555,0,6.641-2.15,7.482-5.799v-26.563h11.691v41.809h-11.598V145.633z M205.272,124.588c0-4.49-1.963-7.482-5.986-7.482
		c-2.992,0-5.705,1.871-6.453,5.424v26.938h-11.691v-24.879c0-4.49-1.871-7.482-5.893-7.482c-2.992,0-5.799,1.871-6.547,5.424
		v26.938h-11.598v-41.809h11.598v3.461c2.057-2.619,5.893-4.396,10.569-4.396c4.957,0,8.887,2.246,11.225,5.332
		c2.713-2.994,6.734-5.332,12.627-5.332c8.604,0,13.748,5.986,13.748,15.434v27.311h-11.598V124.588z M326.78,149.467h-11.598
		v-41.809h11.598V149.467z"/>
	<g>
		<g>
			<path fill="#74B944" d="M51.185,161.035c26.975-4.342,53.514-10.252,78.251-17.623c1.45-1.545,2.817-3.154,4.094-4.822
				c-29.134,8.217-60.719,14.283-92.328,17.996C44.374,158.299,47.707,159.793,51.185,161.035z"/>
			<path fill="#74B944" d="M76.717,165.416c14.823,0,28.547-4.191,39.776-11.314c-14.884,4.229-30.277,7.926-45.926,11.061
				C72.594,165.324,74.643,165.416,76.717,165.416z"/>
			<path fill="#74B944" d="M24.527,143.979c2.135,2.221,4.441,4.307,6.907,6.234c36.954-3.66,74.021-10.443,107.463-19.947
				c0.765-1.439,1.456-2.918,2.097-4.418C104.537,135.5,63.99,141.725,24.527,143.979z"/>
			<path fill="#74B944" d="M102.142,73.16h0.315v3.752c2.749,1.976,4.741,4.117,6.183,6.13l-0.03-9.882h0.179
				c0.926,0,1.676-0.751,1.676-1.677s-0.75-1.677-1.676-1.677h-1.065c0-1.919,0-4.646,0-6.316c0.957-1.157,1.23-3.143,1.23-3.143
				c0-2.26-2.459-4.41-2.459-4.41c0-0.717,0-1.434,0-2.149c0.683-0.276,0.341-1.214,0.341-1.214
				c0.957-0.496,0.615-1.433,0.615-1.433c3.621-1.434-0.683-5.403-0.683-5.403c-1.298-0.826-1.298-4.023-1.298-4.023
				s0,1.506-0.42,2.719c-0.192,0.554-0.471,1.046-0.878,1.305c0,0-4.304,3.97-0.683,5.403c0,0-0.342,0.937,0.615,1.433
				c0,0-0.341,0.938,0.341,1.214c0,0.716,0,1.433,0,2.149c0,0-2.459,2.15-2.459,4.41c0,0,0.273,1.985,1.229,3.143
				c0,1.671,0,4.397,0,6.316h-1.073c-0.926,0-1.677,0.751-1.677,1.677S101.216,73.16,102.142,73.16z"/>
			<path fill="#74B944" d="M49.934,73.333h1.887l-0.013,5.098c1.555-1.472,3.484-2.925,5.884-4.226c0,0,3.095-0.939,6.968-3.026
				c0.003-0.096,0.005-0.179,0.005-0.211c0-1.306-1.059-2.365-2.365-2.365h-1.791l0.045-16.157h0.252
				c1.306,0,2.365-1.06,2.365-2.365s-1.059-2.365-2.365-2.365h-1.502c0-2.708,0-6.556,0-8.911c1.35-1.634,1.735-4.435,1.735-4.435
				c0-3.188-3.469-6.223-3.469-6.223c0-1.011,0-2.022,0-3.033c0.963-0.39,0.481-1.712,0.481-1.712
				c1.351-0.699,0.868-2.021,0.868-2.021c5.108-2.023-0.964-7.623-0.964-7.623c-1.832-1.167-1.832-5.678-1.832-5.678
				s0,2.126-0.593,3.837c-0.271,0.78-0.665,1.476-1.239,1.841c0,0-6.072,5.6-0.964,7.623c0,0-0.482,1.322,0.868,2.021
				c0,0-0.481,1.322,0.482,1.712c0,1.011,0,2.022,0,3.033c0,0-3.47,3.034-3.47,6.223c0,0,0.386,2.801,1.735,4.435
				c0,2.355,0,6.203,0,8.911h-1.515c-1.306,0-2.365,1.06-2.365,2.365s1.059,2.365,2.365,2.365h0.446l-0.042,16.157h-1.897
				c-1.306,0-2.365,1.06-2.365,2.365C47.569,72.275,48.628,73.333,49.934,73.333z"/>
			<path fill="#74B944" d="M25.558,82.951H26.9c0.973,0,1.762-0.789,1.762-1.762s-0.789-1.762-1.762-1.762h-1.334L25.6,69.41h0.188
				c0.973,0,1.762-0.789,1.762-1.762s-0.789-1.762-1.762-1.762h-1.119c0-2.018,0-4.883,0-6.638c1.005-1.216,1.292-3.302,1.292-3.302
				c0-2.375-2.584-4.635-2.584-4.635c0-0.753,0-1.506,0-2.26c0.717-0.289,0.359-1.274,0.359-1.274
				c1.005-0.521,0.646-1.506,0.646-1.506c3.805-1.507-0.718-5.678-0.718-5.678C22.3,39.726,22.3,36.366,22.3,36.366
				s0,1.583-0.441,2.858c-0.202,0.581-0.495,1.098-0.923,1.37c0,0-4.522,4.171-0.718,5.678c0,0-0.359,0.984,0.646,1.506
				c0,0-0.358,0.985,0.359,1.274c0,0.754,0,1.507,0,2.26c0,0-2.584,2.26-2.584,4.635c0,0,0.288,2.086,1.292,3.302
				c0,1.755,0,4.62,0,6.638h-1.128c-0.973,0-1.761,0.789-1.761,1.762s0.789,1.762,1.761,1.762h0.332l-0.032,10.018H17.69
				c-0.973,0-1.762,0.789-1.762,1.762s0.789,1.762,1.762,1.762h1.405v9.379c0,0,2.876-3.914,6.459-5.081L25.558,82.951z"/>
			<polygon fill="#74B944" points="78.474,49.988 78.215,52.056 80.103,51.171 81.99,52.056 81.731,49.988 83.156,48.466 
				81.109,48.074 80.103,46.248 79.096,48.074 77.049,48.466 			"/>
			<path fill="#74B944" d="M77.9,104.969c0.015,0,0.03,0,0.044,0c10.773,0,21.545,0,32.318,0c0-4.656,0-9.313,0-13.969
				c0,0-0.222-1.404-1.166-3.461c-1.425-3.107-4.498-7.704-10.94-11.206c0,0-13.039-3.958-19.092-13.735
				c-0.319-2.045-0.638-4.088-0.958-6.132c0.271,0.034,0.538,0.083,0.819,0.083c2.833,0,5.227-1.803,6.15-4.316
				c-1.035,1.668-2.869,2.789-4.977,2.789c-3.242,0-5.87-2.627-5.87-5.869c0-2.842,2.02-5.209,4.701-5.752c-0.001,0-0.003,0-0.004,0
				c-3.631,0-6.574,2.943-6.574,6.574c0,3.226,2.327,5.896,5.392,6.455c-0.32,2.056-0.642,4.111-0.962,6.168
				c-1.261,2.037-2.826,3.821-4.511,5.37c-6.409,5.886-14.581,8.365-14.581,8.365c-6.442,3.502-9.515,8.099-10.941,11.206
				C45.804,89.596,45.582,91,45.582,91c0,4.656,0,9.313,0,13.969c6.537,0,13.073,0,19.61,0
				C69.428,104.969,73.665,104.969,77.9,104.969z"/>
		</g>
		<g>
			<path fill="#135B9E" d="M8.039,107.436c0.355,5.693,1.594,11.172,3.568,16.348c45.085-0.441,92.261-6.236,133.754-16.348H8.039z"
				/>
			<path fill="#135B9E" d="M18.958,137.336c42.354-2.1,85.928-8.617,124.596-18.85c0.388-1.428,0.719-2.877,0.993-4.344
				c-40.774,9.928-86.696,15.484-130.159,15.842C15.726,132.537,17.257,134.99,18.958,137.336z"/>
			<path fill="#135B9E" d="M112.268,91.24v13.748c1.854,0,3.707,0,5.562,0c0.007,0,0.014,0,0.021,0c5.029,0,10.058,0,15.087,0
				c0-2.174,0-4.348,0-6.521c0,0-0.104-0.654-0.544-1.615c-0.666-1.451-2.1-3.598-5.108-5.23c0,0-6.086-1.848-8.912-6.413
				c-0.175-1.116-0.349-2.232-0.523-3.349c0-0.043,0-0.087,0-0.13c-0.003,0.021-0.006,0.043-0.01,0.064
				c-0.003-0.021-0.007-0.044-0.01-0.064c0,0.043,0,0.087,0,0.13c-0.174,1.116-0.349,2.232-0.522,3.349
				c-0.589,0.951-1.319,1.784-2.106,2.507c-1.024,0.941-2.14,1.683-3.171,2.267c0.141,0.529,0.202,0.871,0.214,0.943
				C112.26,91.029,112.268,91.135,112.268,91.24z"/>
			<path fill="#135B9E" d="M36.861,104.973c0.008,0,0.017,0,0.024,0c2.234,0,4.468,0,6.702,0V91.24c0-0.105,0.008-0.209,0.024-0.313
				c0.023-0.145,0.224-1.303,0.912-3.02c-2.296-1.185-5.226-3.143-7.027-6.053c-0.203-1.305-0.407-2.608-0.61-3.912
				c0-0.051,0-0.103,0-0.152c-0.004,0.024-0.008,0.05-0.012,0.074c-0.005-0.024-0.009-0.05-0.013-0.074c0,0.05,0,0.102,0,0.152
				c-0.204,1.304-0.407,2.607-0.61,3.912c-0.688,1.111-1.542,2.085-2.461,2.93c-3.497,3.211-7.955,4.563-7.955,4.563
				c-3.515,1.91-5.19,4.42-5.969,6.115c-0.515,1.121-0.636,1.889-0.636,1.889c0,2.539,0,5.08,0,7.621c3.566,0,7.132,0,10.699,0
				C32.239,104.973,34.55,104.973,36.861,104.973z"/>
		</g>
	</g>
</g>
</svg>
