<svg width="41" height="41" viewBox="0 0 41 41" fill="none" xmlns="http://www.w3.org/2000/svg">
<path d="M30.3809 11.6768V7.51009C30.3809 5.66914 28.8885 4.17676 27.0475 4.17676H8.71419C6.87324 4.17676 5.38086 5.66914 5.38086 7.51009V29.1768C5.38086 31.0178 6.87324 32.5101 8.71419 32.5101H18.7142" stroke="white" stroke-width="1.8" stroke-linecap="round" stroke-linejoin="round"/>
<path d="M30.3809 26.6768C33.1423 26.6768 35.3809 24.4382 35.3809 21.6768C35.3809 18.9153 33.1423 16.6768 30.3809 16.6768C27.6194 16.6768 25.3809 18.9153 25.3809 21.6768C25.3809 24.4382 27.6194 26.6768 30.3809 26.6768Z" stroke="white" stroke-width="1.8"/>
<path d="M30.3808 30.8438C26.4501 30.8438 24.8371 33.1613 24.1749 35.0634C23.7211 36.3674 24.8334 37.5104 26.2141 37.5104H34.5474C35.9281 37.5104 37.0404 36.3674 36.5866 35.0634C35.9244 33.1613 34.3114 30.8438 30.3808 30.8438Z" stroke="white" stroke-width="1.8" stroke-linecap="round" stroke-linejoin="round"/>
<path d="M12.0475 10.8438H23.7142" stroke="white" stroke-width="1.8" stroke-linecap="round" stroke-linejoin="round"/>
<path d="M12.0475 16.6768H18.7142" stroke="white" stroke-width="1.8" stroke-linecap="round" stroke-linejoin="round"/>
</svg>
