<svg width="40" height="40" viewBox="0 0 40 40" fill="none" xmlns="http://www.w3.org/2000/svg">
<path fill-rule="evenodd" clip-rule="evenodd" d="M7.02994 3.48703C6.66663 4.20006 6.66663 5.13349 6.66663 7.00032V33.0003C6.66663 34.8672 6.66663 35.8007 7.02994 36.5137C7.34951 37.1408 7.85944 37.6508 8.48666 37.9703C9.19969 38.3337 10.1331 38.3337 12 38.3337H28C29.8668 38.3337 30.8003 38.3337 31.5133 37.9703C32.1405 37.6508 32.6505 37.1408 32.97 36.5137C33.3333 35.8007 33.3333 34.8672 33.3333 33.0003V13.3337H27C25.1331 13.3337 24.1996 13.3337 23.4866 12.9703C22.8595 12.6508 22.3495 12.1408 22.03 11.5136C21.6666 10.8006 21.6666 9.86716 21.6666 8.00033V1.66699H12C10.1331 1.66699 9.19969 1.66699 8.48666 2.03031C7.85944 2.34988 7.34951 2.85981 7.02994 3.48703ZM13.3333 18.5003C12.5049 18.5003 11.8333 19.1718 11.8333 20.0003C11.8333 20.8288 12.5049 21.5003 13.3333 21.5003H26.6666C27.4951 21.5003 28.1666 20.8288 28.1666 20.0003C28.1666 19.1718 27.4951 18.5003 26.6666 18.5003H13.3333ZM11.8333 25.8337C11.8333 25.0052 12.5049 24.3337 13.3333 24.3337H26.6666C27.4951 24.3337 28.1666 25.0052 28.1666 25.8337C28.1666 26.6622 27.4951 27.3337 26.6666 27.3337H13.3333C12.5049 27.3337 11.8333 26.6622 11.8333 25.8337ZM13.3333 30.167C12.5049 30.167 11.8333 30.8385 11.8333 31.667C11.8333 32.4955 12.5049 33.167 13.3333 33.167H20C20.8285 33.167 21.5 32.4955 21.5 31.667C21.5 30.8385 20.8285 30.167 20 30.167H13.3333Z" fill="#151616"/>
<path opacity="0.5" d="M21.6667 8.00033V1.66699L33.3333 13.3337H27C25.1332 13.3337 24.1997 13.3337 23.4867 12.9703C22.8595 12.6508 22.3495 12.1408 22.03 11.5136C21.6667 10.8006 21.6667 9.86716 21.6667 8.00033Z" fill="#262F56"/>
</svg>
