<svg width="45" height="45" viewBox="0 0 45 45" fill="none" xmlns="http://www.w3.org/2000/svg">
<path d="M33.75 12.1875V7.5C33.75 5.42893 32.0711 3.75 30 3.75H9.375C7.30393 3.75 5.625 5.42893 5.625 7.5V31.875C5.625 33.9461 7.30393 35.625 9.375 35.625H20.625" stroke="black" stroke-width="1.8" stroke-linecap="round" stroke-linejoin="round"/>
<path d="M33.75 29.0625C36.8566 29.0625 39.375 26.5441 39.375 23.4375C39.375 20.3309 36.8566 17.8125 33.75 17.8125C30.6434 17.8125 28.125 20.3309 28.125 23.4375C28.125 26.5441 30.6434 29.0625 33.75 29.0625Z" stroke="black" stroke-width="1.8"/>
<path d="M33.7499 33.75C29.3279 33.75 27.5133 36.3572 26.7684 38.4971C26.2578 39.9641 27.5092 41.25 29.0624 41.25H38.4374C39.9907 41.25 41.242 39.9641 40.7315 38.4971C39.9865 36.3572 38.1719 33.75 33.7499 33.75Z" stroke="black" stroke-width="1.8" stroke-linecap="round" stroke-linejoin="round"/>
<path d="M13.125 11.25H26.25" stroke="black" stroke-width="1.8" stroke-linecap="round" stroke-linejoin="round"/>
<path d="M13.125 17.8125H20.625" stroke="black" stroke-width="1.8" stroke-linecap="round" stroke-linejoin="round"/>
</svg>
