<svg width="41" height="41" viewBox="0 0 41 41" fill="none" xmlns="http://www.w3.org/2000/svg">
<path fill-rule="evenodd" clip-rule="evenodd" d="M12.578 1.6875C13.5821 1.6875 14.3962 2.50152 14.3962 3.50568V5.92992H25.3053V3.50568C25.3053 2.50152 26.1193 1.6875 27.1234 1.6875C28.1276 1.6875 28.9416 2.50152 28.9416 3.50568V5.92992H29.5477C33.5644 5.92992 36.8204 9.18604 36.8204 13.2026V18.0511V30.1724C36.8204 34.1889 33.5644 37.4451 29.5477 37.4451H10.1537C6.1371 37.4451 2.88098 34.1889 2.88098 30.1724V18.0511V13.2026C2.88098 9.18604 6.1371 5.92992 10.1537 5.92992H10.7598V3.50568C10.7598 2.50152 11.5738 1.6875 12.578 1.6875ZM33.184 18.0511H6.51734V30.1724C6.51734 32.1807 8.14539 33.8088 10.1537 33.8088H29.5477C31.5559 33.8088 33.184 32.1807 33.184 30.1724V18.0511ZM12.578 21.6876C11.2391 21.6876 10.1537 22.7729 10.1537 24.1118C10.1537 25.4507 11.2391 26.536 12.578 26.536H15.0022C16.341 26.536 17.4265 25.4507 17.4265 24.1118C17.4265 22.7729 16.341 21.6876 15.0022 21.6876H12.578Z" fill="#0E0E10"/>
</svg>
