<svg width="41" height="41" viewBox="0 0 41 41" fill="none" xmlns="http://www.w3.org/2000/svg">
<path fill-rule="evenodd" clip-rule="evenodd" d="M16.2838 4.99225C18.0381 4.99225 18.6632 5.00245 19.2326 5.14317C19.7739 5.27693 20.2899 5.49743 20.7607 5.79613C21.2559 6.11028 21.6954 6.55502 22.9081 7.82271L32.6827 18.0417C33.6482 19.051 34.3097 19.7443 34.7802 20.3233C35.2397 20.8887 35.4327 21.2463 35.5267 21.5515C35.7409 22.2478 35.7327 22.9937 35.5029 23.685C35.4022 23.988 35.2012 24.3413 34.7296 24.8962C34.2462 25.4647 33.5694 26.1432 32.5817 27.1308L27.8134 31.899C26.8257 32.8867 26.1474 33.5635 25.5789 34.0468C25.0241 34.5187 24.6707 34.7195 24.3676 34.8203C23.6762 35.05 22.9306 35.0583 22.2342 34.844C21.9289 34.75 21.5712 34.557 21.0061 34.0977C20.4269 33.627 19.7337 32.9655 18.7244 32L8.50539 22.2253C7.23769 21.0128 6.79296 20.5733 6.47881 20.078C6.18011 19.6072 5.95961 19.0912 5.82583 18.5498C5.68513 17.9805 5.67493 17.3553 5.67493 15.6012V11.4922C5.67493 10.0674 5.67609 9.08891 5.73806 8.33041C5.79861 7.58941 5.90963 7.19136 6.05641 6.90328C6.39196 6.24471 6.92739 5.70928 7.58596 5.37373C7.87404 5.22695 8.27209 5.11593 9.01309 5.05538C9.77159 4.99342 10.75 4.99225 12.1749 4.99225H16.2838ZM19.9524 2.23078C18.9846 1.9916 17.9716 1.99185 16.4666 1.99222L16.2838 1.99225H12.1749H12.1121C10.7653 1.99223 9.66393 1.99222 8.76879 2.06535C7.84226 2.14105 7.00548 2.30253 6.22399 2.70072C5.00094 3.32388 4.00656 4.31827 3.38339 5.54132C2.98519 6.3228 2.82373 7.1596 2.74803 8.08611C2.67489 8.98125 2.67491 10.0827 2.67493 11.4294V11.4922V15.6012L2.67489 15.7839C2.67453 17.2888 2.67428 18.3018 2.91346 19.2697C3.12491 20.1252 3.47344 20.941 3.94558 21.6852C4.47961 22.527 5.21181 23.227 6.29966 24.267L6.43173 24.3933L16.6507 34.168L16.6955 34.2108C17.6491 35.123 18.4296 35.8695 19.1141 36.4258C19.8231 37.002 20.5264 37.4572 21.3517 37.7112C22.6447 38.1092 24.0297 38.0938 25.3137 37.6672C26.1331 37.395 26.8261 36.9242 27.5222 36.3323C28.1941 35.7612 28.9577 34.9975 29.8907 34.0643H29.8909L29.9347 34.0203L34.7031 29.2522L34.7469 29.2082L34.7471 29.208C35.6801 28.275 36.4437 27.5113 37.0151 26.8395C37.6069 26.1433 38.0776 25.4503 38.3499 24.631C38.7766 23.347 38.7919 21.962 38.3939 20.669C38.1399 19.8438 37.6847 19.1405 37.1084 18.4313C36.5522 17.7468 35.8056 16.9663 34.8936 16.0128L34.8506 15.968L25.0759 5.74905L24.9497 5.61698C23.9097 4.52913 23.2096 3.79695 22.3679 3.2629C21.6236 2.79078 20.8079 2.44223 19.9524 2.23078ZM12.3416 14.3256C12.3416 12.8528 13.5355 11.6589 15.0083 11.6589C16.4811 11.6589 17.6749 12.8528 17.6749 14.3256C17.6749 15.7983 16.4811 16.9922 15.0083 16.9922C13.5355 16.9922 12.3416 15.7983 12.3416 14.3256ZM15.0083 8.65891C11.8787 8.65891 9.34164 11.196 9.34164 14.3256C9.34164 17.4552 11.8787 19.9922 15.0083 19.9922C18.1379 19.9922 20.6749 17.4552 20.6749 14.3256C20.6749 11.196 18.1379 8.65891 15.0083 8.65891Z" fill="#262F56"/>
</svg>
