<svg width="40" height="40" viewBox="0 0 40 40" fill="none" xmlns="http://www.w3.org/2000/svg">
<path d="M19.2236 21.5479C23.3658 21.5479 26.7236 18.19 26.7236 14.0479C26.7236 9.90572 23.3658 6.54785 19.2236 6.54785C15.0815 6.54785 11.7236 9.90572 11.7236 14.0479C11.7236 18.19 15.0815 21.5479 19.2236 21.5479Z" stroke="#F8F9FF" stroke-width="1.8"/>
<path d="M29.2812 21.5479C33.4234 21.5479 36.7813 18.19 36.7813 14.0479C36.7813 9.90572 33.4234 6.54785 29.2812 6.54785" stroke="#F8F9FF" stroke-width="1.8" stroke-linecap="round" stroke-linejoin="round"/>
<path d="M9.16602 21.5479C5.02385 21.5479 1.66602 18.19 1.66602 14.0479C1.66602 9.90572 5.02385 6.54785 9.16602 6.54785" stroke="#F8F9FF" stroke-width="1.8" stroke-linecap="round" stroke-linejoin="round"/>
<path d="M20 25.4473C13.3333 25.4473 8.33331 28.7806 8.33331 32.9473C8.33331 35.4473 13.3333 37.9473 20 37.9473C26.6666 37.9473 31.6666 35.4473 31.6666 32.9473C31.6666 28.7806 26.6666 25.4473 20 25.4473Z" stroke="#F8F9FF" stroke-width="1.8" stroke-linecap="round" stroke-linejoin="round"/>
<path d="M30.8335 26.5684C35.1668 27.7335 38.3335 30.351 38.3335 33.421C38.3335 35.263 35.1668 37.1049 30.8335 37.947" stroke="#F8F9FF" stroke-width="1.8" stroke-linecap="round" stroke-linejoin="round"/>
<path d="M9.1665 26.5684C4.83317 27.7335 1.6665 30.351 1.6665 33.421C1.6665 35.263 4.83317 37.1049 9.1665 37.947" stroke="#F8F9FF" stroke-width="1.8" stroke-linecap="round" stroke-linejoin="round"/>
</svg>
