<svg width="40" height="40" viewBox="0 0 40 40" fill="none" xmlns="http://www.w3.org/2000/svg">
<path d="M31.8973 8.08328L31.8972 8.08325C28.6157 5.06292 24.3717 3.40273 19.9567 3.40273C15.5344 3.40273 11.2976 5.06298 8.01618 8.08325L8.00961 8.08931L8.00331 8.09565L8.00097 8.098C4.74031 11.1596 2.67562 15.3038 2.17399 19.759L2.17393 19.7595C1.67003 24.287 2.88978 27.9845 5.48023 31.6001C5.54934 31.6989 5.64906 31.8337 5.81525 31.9087C5.95762 31.973 6.11135 31.9724 6.20475 31.972C6.21123 31.972 6.21743 31.972 6.22331 31.972L33.7461 32.032H33.747C34.0257 32.032 34.2264 31.8683 34.3416 31.7515C34.4421 31.6495 34.5327 31.5246 34.5945 31.4393C34.6051 31.4246 34.6149 31.411 34.6238 31.399L34.6238 31.399L34.627 31.3946C37.2214 27.7668 38.3082 24.268 37.79 19.7295C37.2806 15.249 35.1841 11.1091 31.8973 8.08328ZM30.3727 9.74828L30.3728 9.74841C36.3078 15.2069 37.7402 23.031 33.4221 29.5376H6.54192C2.26002 23.0813 3.66955 15.2564 9.5348 9.74699C15.4804 4.28147 24.435 4.28217 30.3727 9.74828Z" fill="black" stroke="black" stroke-width="0.8"/>
<path d="M26.1875 13.7702L26.2064 13.7797L26.2235 13.7922C26.703 14.1436 26.6461 14.7748 26.4202 15.2266L26.417 15.233L26.4134 15.2392L22.1984 22.5878C23.082 23.2723 23.6535 24.3547 23.6535 25.5606C23.6535 27.6226 22.0134 29.2408 19.9321 29.2408C17.9121 29.2408 16.2766 27.585 16.2766 25.5606L16.2766 25.5595C16.2855 23.5004 17.9148 21.8062 19.9321 21.8062C20.0168 21.8062 20.0986 21.8093 20.1794 21.8156L24.7458 14.237C25.0113 13.6999 25.6616 13.5073 26.1875 13.7702ZM19.9321 27.0917C20.8218 27.0917 21.5044 26.415 21.5044 25.5606C21.5044 24.6718 20.7956 23.9553 19.9321 23.9553C19.1346 23.9553 18.4263 24.6794 18.4258 25.5595C18.4335 26.4089 19.1108 27.0917 19.9321 27.0917Z" fill="black" stroke="black" stroke-width="0.5"/>
</svg>
